<?xml version="1.0" encoding="UTF-8" standalone="no"?>
<!-- Created with Inkscape (http://www.inkscape.org/) -->

<svg
   xmlns:dc="http://purl.org/dc/elements/1.1/"
   xmlns:cc="http://creativecommons.org/ns#"
   xmlns:rdf="http://www.w3.org/1999/02/22-rdf-syntax-ns#"
   xmlns:svg="http://www.w3.org/2000/svg"
   xmlns="http://www.w3.org/2000/svg"
   xmlns:sodipodi="http://sodipodi.sourceforge.net/DTD/sodipodi-0.dtd"
   xmlns:inkscape="http://www.inkscape.org/namespaces/inkscape"
   id="svg2"
   sodipodi:docname="crankeye-Purple-Jelly.svg"
   inkscape:export-filename="C:\Documents and Settings\Neal\Desktop\yellowjelly.png"
   viewBox="0 0 512 512"
   sodipodi:version="0.32"
   inkscape:export-xdpi="58.673611"
   inkscape:output_extension="org.inkscape.output.svg.inkscape"
   inkscape:export-ydpi="58.673611"
   inkscape:version="0.48.4 r9939"
   version="1.1"
   width="100%"
   height="100%">
  <title
     id="title3000">Purple Jelly Updated</title>
  <defs
     id="defs14" />
  <sodipodi:namedview
     id="base"
     bordercolor="#666666"
     inkscape:pageshadow="2"
     guidetolerance="10"
     pagecolor="#ffffff"
     gridtolerance="10000"
     inkscape:window-height="968"
     inkscape:zoom="0.54605961"
     objecttolerance="10"
     borderopacity="1.0"
     inkscape:current-layer="layer6"
     inkscape:cx="12.227244"
     inkscape:cy="524.24192"
     showguides="true"
     inkscape:window-y="-4"
     inkscape:window-x="-4"
     inkscape:window-width="1280"
     inkscape:guide-bbox="true"
     inkscape:pageopacity="0.0"
     inkscape:document-units="px"
     showgrid="false"
     inkscape:window-maximized="0" />
  <g
     id="layer6"
     inkscape:label="slime"
     inkscape:groupmode="layer"
     transform="translate(0,-540.4)">
    <g
       id="g2991"
       transform="matrix(3.0011954,0,0,3.0011954,-24.176597,496.34949)">
      <path
         inkscape:connector-curvature="0"
         d="m 154.8,125.58 c 0,25.84 -24.6,51.2 -58.518,51.2 -33.914,0 -61.439,-23.9 -61.439,-49.74 0,-25.84 28.988,-45.348 62.902,-45.348 33.915,0 57.055,18.046 57.055,43.888 z"
         style="opacity:0.86772;fill:#7852b1;stroke:#1f1c24;stroke-width:6;stroke-linecap:square;stroke-linejoin:bevel"
         sodipodi:nodetypes="csssc"
         id="path3912" />
      <path
         inkscape:connector-curvature="0"
         d="m 161.27,102.74 c 0,37.31 -27.85,73.93 -66.257,73.93 -38.404,0 -69.573,-34.5 -69.573,-71.82 0,-19.497 17.745,-21.873 31.79,-33.663 12.826,-10.766 12.332,-47.903 30.663,-47.903 22.257,0 54.897,19.695 66.377,45.311 4.75,10.599 5.36,18.149 7,34.145 z"
         style="fill:#5a2ca0;fill-opacity:0.81987999;stroke:#1f1c24;stroke-width:7.67229986;stroke-linecap:square;stroke-linejoin:bevel"
         sodipodi:nodetypes="csssssc"
         id="path3934" />
      <path
         sodipodi:cx="662.66266"
         sodipodi:cy="981.41486"
         transform="matrix(0.83333,0,0,1,-438.38,-863.88)"
         d="m 671.43965,981.41486 c 0,10.09874 -3.92959,18.28539 -8.77699,18.28539 -4.8474,0 -8.77699,-8.18665 -8.77699,-18.28539 0,-10.09875 3.92959,-18.2854 8.77699,-18.2854 4.8474,0 8.77699,8.18665 8.77699,18.2854 z"
         sodipodi:type="arc"
         style="fill:#000000"
         sodipodi:ry="18.285395"
         sodipodi:rx="8.776989"
         id="path3937" />
      <path
         sodipodi:cx="662.66266"
         sodipodi:cy="981.41486"
         transform="matrix(0.83333,0,0,1,-417.9,-864.61)"
         d="m 671.43965,981.41486 c 0,10.09874 -3.92959,18.28539 -8.77699,18.28539 -4.8474,0 -8.77699,-8.18665 -8.77699,-18.28539 0,-10.09875 3.92959,-18.2854 8.77699,-18.2854 4.8474,0 8.77699,8.18665 8.77699,18.2854 z"
         sodipodi:type="arc"
         style="fill:#000000"
         sodipodi:ry="18.285395"
         sodipodi:rx="8.776989"
         id="path3939" />
      <path
         sodipodi:cx="487.85431"
         sodipodi:cy="822.69763"
         transform="matrix(0.71429,0,0,0.94444,-233.9,-659.46)"
         d="m 492.97422,822.69763 c 0,7.2711 -2.29226,13.16549 -5.11991,13.16549 -2.82765,0 -5.11991,-5.89439 -5.11991,-13.16549 0,-7.27109 2.29226,-13.16548 5.11991,-13.16548 2.82765,0 5.11991,5.89439 5.11991,13.16548 z"
         sodipodi:type="arc"
         style="fill:#ffffff"
         sodipodi:ry="13.165483"
         sodipodi:rx="5.1199102"
         id="path3941" />
      <path
         sodipodi:cx="487.85431"
         sodipodi:cy="822.69763"
         transform="matrix(0.71429,0,0,0.94444,-214.15,-661.65)"
         d="m 492.97422,822.69763 c 0,7.2711 -2.29226,13.16549 -5.11991,13.16549 -2.82765,0 -5.11991,-5.89439 -5.11991,-13.16549 0,-7.27109 2.29226,-13.16548 5.11991,-13.16548 2.82765,0 5.11991,5.89439 5.11991,13.16548 z"
         sodipodi:type="arc"
         style="fill:#ffffff"
         sodipodi:ry="13.165483"
         sodipodi:rx="5.1199102"
         id="path3943" />
      <path
         inkscape:connector-curvature="0"
         d="m 88.555,34.66 c -10.372,1.137 -14.398,16.121 -8.532,23.5 7.126,5.5 14.784,-1.859 21.967,-3.156 7.53,-3.551 6.63,-17.2 -2.217,-18.094 -3.646,-1.103 -7.336,-2.563 -11.218,-2.25 z M 52.148,86.16 C 37.366,90.406 31.2,109.73 38.6,122.67 c 3.717,10.73 9.589,22.42 20.611,27.18 8.804,0.38 11.419,-10.89 8.219,-17.44 -2.355,-13.84 -4.124,-28 -6.625,-41.625 -1.99,-2.708 -5.14,-4.981 -8.657,-4.625 z"
         style="fill:#ffffff;fill-opacity:0.29193002"
         id="path3945" />
    </g>
  </g>
  <metadata
     id="metadata12">
    <rdf:RDF>
      <cc:Work>
        <dc:format>image/svg+xml</dc:format>
        <dc:type
           rdf:resource="http://purl.org/dc/dcmitype/StillImage" />
        <cc:license
           rdf:resource="http://creativecommons.org/licenses/publicdomain/" />
        <dc:publisher>
          <cc:Agent
             rdf:about="http://openclipart.org/">
            <dc:title>Openclipart</dc:title>
          </cc:Agent>
        </dc:publisher>
        <dc:title>Purple Jelly Updated</dc:title>
        <dc:date>2016</dc:date>
        <dc:description />
        <dc:source>https://openclipart.org/detail/3872/-by--3872</dc:source>
        <dc:creator>
          <cc:Agent>
            <dc:title>crankeye</dc:title>
          </cc:Agent>
        </dc:creator>
        <dc:contributor>
          <cc:Agent>
            <dc:title>rejon</dc:title>
          </cc:Agent>
        </dc:contributor>
      </cc:Work>
      <cc:License
         rdf:about="http://creativecommons.org/licenses/publicdomain/">
        <cc:permits
           rdf:resource="http://creativecommons.org/ns#Reproduction" />
        <cc:permits
           rdf:resource="http://creativecommons.org/ns#Distribution" />
        <cc:permits
           rdf:resource="http://creativecommons.org/ns#DerivativeWorks" />
      </cc:License>
    </rdf:RDF>
  </metadata>
</svg>
